<?xml version="1.0" standalone="no"?>
<!DOCTYPE svg PUBLIC "-//W3C//DTD SVG 20010904//EN"
 "http://www.w3.org/TR/2001/REC-SVG-20010904/DTD/svg10.dtd">
<svg version="1.0" xmlns="http://www.w3.org/2000/svg"
 width="949.000000pt" height="373.000000pt" viewBox="0 0 949.000000 373.000000"
 preserveAspectRatio="xMidYMid meet">
<metadata>
Created by potrace 1.16, written by Peter Selinger 2001-2019
</metadata>
<g transform="translate(0.000000,373.000000) scale(0.100000,-0.100000)"
fill="#000000" stroke="none">
<path d="M4918 2964 c-16 -8 -28 -19 -28 -25 0 -6 5 -7 10 -4 6 3 10 4 10 1 0
-3 -17 -14 -38 -25 -21 -11 -43 -30 -49 -44 -6 -14 -25 -31 -42 -38 -17 -7
-32 -23 -33 -33 -2 -11 -20 -30 -41 -41 -20 -12 -34 -25 -30 -28 3 -4 1 -7 -6
-7 -7 0 -10 -4 -7 -8 3 -5 -13 -19 -34 -33 -22 -13 -40 -31 -40 -39 0 -8 -17
-24 -38 -35 -20 -11 -37 -25 -37 -30 0 -18 -17 -36 -41 -45 -14 -6 -24 -18
-24 -28 0 -11 -14 -26 -36 -38 -20 -10 -40 -29 -45 -41 -5 -13 -15 -23 -24
-23 -8 0 -15 -4 -15 -9 0 -5 -9 -13 -20 -16 -11 -3 -20 -14 -20 -23 0 -10 -17
-28 -38 -41 -21 -13 -44 -36 -51 -52 -7 -16 -18 -29 -25 -29 -7 0 -18 -10 -25
-22 -6 -13 -9 -15 -7 -5 3 9 1 17 -4 17 -5 0 -10 -10 -12 -22 -2 -14 -17 -30
-40 -42 -20 -10 -37 -22 -36 -25 2 -21 -6 -31 -37 -50 -19 -11 -35 -27 -35
-36 0 -9 -16 -25 -35 -36 -19 -12 -35 -25 -35 -31 0 -13 -41 -47 -57 -48 -13
0 -36 -34 -28 -42 2 -2 -14 -15 -35 -28 -22 -14 -40 -32 -40 -42 0 -9 -18 -27
-39 -39 -22 -12 -40 -25 -39 -28 2 -21 -6 -30 -42 -46 -22 -10 -40 -22 -40
-28 0 -5 -24 -33 -52 -61 -52 -52 -98 -76 -144 -76 -13 0 -24 -5 -24 -10 0 -6
11 -8 25 -4 14 3 25 2 25 -4 0 -5 -15 -12 -32 -15 -18 -4 -49 -9 -68 -12 -87
-15 -121 -28 -136 -54 l-15 -26 4 28 c3 19 0 27 -10 27 -9 0 -13 -6 -10 -14
10 -25 -53 -56 -112 -56 -37 0 -51 -4 -51 -14 0 -22 -39 -26 -250 -28 -176 -1
-195 0 -194 15 2 22 -14 22 -18 1 -2 -10 -15 -18 -30 -20 -23 -2 -28 1 -29 19
l0 22 -11 -22 c-11 -23 -45 -27 -65 -7 -10 10 -10 13 0 17 6 3 2 6 -10 6 -16
1 -21 -3 -17 -14 5 -12 -3 -15 -37 -16 -24 0 -177 -2 -339 -3 -180 -2 -307 -7
-325 -14 -16 -6 -50 -13 -75 -17 -38 -5 -48 -10 -56 -33 -8 -20 -23 -32 -52
-41 -23 -8 -39 -18 -36 -23 9 -14 -26 -48 -48 -48 -10 0 -21 -8 -24 -18 -3 -9
-10 -26 -15 -37 -5 -11 -11 -31 -14 -44 -6 -34 -15 -39 -22 -13 -9 36 -21 25
-28 -25 -3 -27 -10 -55 -14 -63 -5 -8 -4 -26 0 -39 5 -12 6 -28 2 -34 -11 -19
-15 -177 -3 -177 5 0 10 -9 10 -19 0 -23 16 -36 25 -21 10 15 20 12 23 -7 5
-49 19 -127 21 -118 1 6 5 4 10 -4 8 -12 12 -12 25 -2 14 12 16 10 16 -12 0
-30 18 -46 54 -49 24 -2 29 -11 29 -44 0 -5 16 -11 36 -13 20 -1 46 -8 57 -16
16 -11 24 -11 33 -2 9 9 16 7 30 -12 13 -17 25 -22 40 -18 11 3 24 1 27 -5 4
-6 230 -8 623 -7 339 2 643 -1 676 -6 33 -5 64 -8 68 -7 5 2 14 -11 20 -27 8
-21 21 -32 49 -40 26 -8 42 -20 48 -37 11 -28 14 -29 34 -8 14 14 16 14 16 0
0 -29 35 -34 223 -31 150 3 193 6 212 19 15 10 26 12 30 6 10 -17 25 -11 34
13 5 12 25 31 45 42 20 11 36 24 36 30 0 13 74 55 96 55 8 0 14 4 14 10 0 5 7
7 15 4 10 -4 15 0 15 13 0 11 7 28 15 39 8 10 15 25 15 32 0 16 24 42 38 42
10 0 32 45 36 73 1 9 5 20 9 23 4 4 7 18 7 31 0 15 9 27 25 35 19 9 23 16 19
35 -4 13 -1 29 4 36 6 7 13 35 15 62 3 32 12 56 25 69 12 12 29 29 39 39 21
20 43 42 119 113 30 28 54 55 54 61 0 6 15 21 33 32 18 11 39 32 47 45 7 14
16 23 20 21 3 -2 24 16 45 41 21 24 43 44 48 44 12 0 37 26 31 33 -3 3 12 18
33 33 21 16 40 33 42 38 2 5 31 34 65 65 33 31 81 77 105 104 24 26 50 47 58
47 7 0 13 4 13 10 0 13 196 210 209 210 6 0 11 4 11 9 0 6 -8 9 -17 8 -26 -1
-73 32 -67 48 3 8 -11 22 -35 36 -30 16 -40 27 -36 40 4 13 -3 20 -30 29 -29
9 -35 16 -35 39 0 24 -6 30 -39 40 -32 9 -40 17 -43 39 -2 18 -10 28 -23 30
-30 4 -46 37 -50 103 -5 65 16 122 40 112 10 -3 15 1 15 11 0 9 7 19 15 22 8
4 12 10 9 15 -3 5 19 9 50 9 30 0 56 -5 58 -11 3 -9 24 -16 56 -18 7 -1 18
-12 24 -26 7 -15 17 -24 25 -21 7 3 22 2 34 -2 11 -5 49 -4 82 0 34 5 71 10
82 12 12 2 21 12 23 26 4 27 28 49 53 50 12 0 18 12 21 43 2 23 1 44 -4 45 -4
2 -6 8 -2 13 3 5 -2 9 -10 9 -10 0 -16 9 -16 22 0 21 1 21 13 3 13 -17 14 -17
20 4 4 15 1 21 -12 21 -22 0 -61 40 -61 62 0 10 -12 19 -30 23 -24 5 -30 12
-30 33 0 22 -8 30 -40 44 -28 12 -40 23 -40 37 0 14 -12 27 -37 38 -24 12 -39
27 -43 43 -4 18 -15 27 -43 33 -32 8 -37 13 -37 38 0 16 -4 29 -9 29 -5 0 -15
2 -23 5 -7 2 -25 -2 -40 -11z m34 -166 c0 -18 1 -59 2 -90 0 -32 3 -58 7 -58
4 0 9 -9 12 -20 3 -11 2 -20 -3 -20 -13 0 -21 -33 -10 -44 21 -21 29 11 31
122 2 61 6 112 10 112 13 0 34 -66 34 -107 0 -24 3 -43 8 -43 18 0 22 7 22 39
0 19 6 36 13 38 8 3 12 -6 12 -27 0 -18 4 -29 10 -25 6 3 10 0 10 -8 0 -8 7
-17 15 -21 8 -3 15 -2 15 3 0 4 7 8 15 8 15 0 19 -19 15 -66 -1 -13 3 -21 8
-17 5 3 10 -16 10 -47 0 -42 -4 -56 -19 -65 -10 -7 -19 -8 -19 -3 0 5 -9 11
-19 14 -13 3 -18 0 -15 -8 3 -7 -2 -15 -10 -18 -10 -4 -13 -1 -9 9 4 10 0 12
-11 8 -9 -3 -16 -1 -16 6 0 8 -14 9 -46 4 -44 -6 -46 -6 -39 15 8 26 -1 42
-21 34 -8 -3 -14 -15 -12 -27 2 -15 -2 -21 -17 -21 -19 0 -20 7 -21 128 -1
103 1 129 13 136 13 7 13 9 -1 14 -18 7 -21 30 -6 58 16 29 30 23 32 -13z
m-301 -282 c10 -13 -1 -140 -12 -144 -6 -3 -5 -9 1 -17 8 -9 8 -15 0 -20 -5
-3 -10 -23 -10 -43 0 -26 3 -33 9 -23 7 10 9 7 8 -12 -1 -14 -5 -23 -9 -20 -5
2 -8 -2 -8 -11 0 -8 4 -16 10 -18 16 -5 23 -167 10 -223 -7 -27 -14 -69 -17
-92 -3 -24 -9 -43 -14 -43 -5 0 -10 19 -11 43 -1 23 -2 56 -3 72 -1 17 -3 55
-4 85 -3 83 -17 35 -25 -90 -10 -134 -12 -156 -22 -172 -4 -7 -9 -28 -11 -47
-7 -66 -13 -44 -14 50 -1 52 -2 103 -3 114 -1 11 -4 45 -5 75 -3 47 -5 37 -17
-65 -17 -139 -18 -145 -39 -145 -11 0 -15 11 -15 48 1 26 0 72 -1 102 -3 76 9
349 16 359 3 5 1 20 -4 33 -8 23 4 68 19 68 12 0 16 -31 14 -115 -1 -46 3 -86
9 -93 8 -10 7 -16 -2 -21 -9 -6 -10 -14 -3 -27 6 -11 8 -32 5 -48 -4 -22 -2
-27 8 -24 9 3 15 23 16 59 6 197 13 317 18 332 12 29 25 19 25 -20 1 -66 13
-261 19 -307 0 -5 4 -6 8 -3 6 7 15 231 13 358 0 48 3 57 17 55 10 0 21 -5 24
-10z m-232 -260 c1 -28 1 -64 1 -81 0 -16 1 -41 1 -55 9 -148 1 -373 -14 -451
-9 -48 -26 -67 -28 -31 0 9 -2 44 -3 77 -4 78 -26 82 -32 5 -2 -30 -6 -66 -9
-80 -3 -14 -8 -62 -12 -108 -3 -45 -8 -80 -11 -77 -3 2 -7 60 -9 127 -3 77 -9
126 -16 130 -9 6 -9 13 1 28 16 26 15 40 -3 40 -12 0 -15 -16 -16 -77 -1 -80
-1 -85 -14 -163 -9 -51 -12 -83 -14 -137 0 -20 -4 -33 -8 -29 -4 3 -8 60 -9
125 -1 65 -6 127 -12 137 -9 14 -12 15 -12 4 -1 -8 -4 -31 -6 -50 -3 -19 -7
-51 -9 -70 -1 -19 -4 -36 -5 -37 -3 -4 -7 -37 -13 -121 -7 -93 -17 -88 -17 9
0 97 -10 189 -20 189 -3 0 -12 -54 -20 -120 -7 -66 -16 -120 -21 -120 -4 0
-10 -10 -12 -22 -2 -13 -5 4 -7 37 -1 33 -5 85 -9 115 -7 50 -8 52 -15 25 -4
-16 -12 -43 -17 -59 -5 -15 -6 -32 -4 -36 3 -5 1 -11 -5 -15 -5 -3 -10 1 -10
10 0 9 -7 23 -15 31 -8 9 -15 26 -15 40 0 13 -4 24 -10 24 -5 0 -10 -6 -10
-12 0 -24 -17 -41 -31 -32 -20 13 -26 66 -14 124 3 14 5 82 5 151 1 94 4 131
15 145 16 21 15 31 17 -126 1 -36 5 -70 10 -76 5 -7 7 -36 6 -65 -2 -30 1 -55
7 -56 6 -2 11 14 11 35 7 163 16 331 20 351 10 46 24 0 24 -76 0 -39 5 -84 10
-99 7 -18 7 -30 0 -39 -7 -9 -6 -16 5 -25 9 -7 17 -11 20 -9 2 2 6 75 10 161
3 87 8 165 12 174 13 34 22 -18 22 -132 1 -89 4 -113 16 -117 19 -8 26 5 24
45 -3 91 3 276 11 287 20 34 30 -5 29 -122 0 -121 10 -183 25 -158 5 7 10 88
13 179 3 92 7 169 9 171 1 2 9 -3 17 -11 11 -11 15 -47 15 -158 1 -85 5 -147
12 -154 14 -14 11 -44 23 275 5 120 18 174 31 131 4 -12 7 -58 7 -104 -1 -122
10 -229 22 -225 5 1 11 36 12 77 2 41 4 77 5 80 1 3 1 10 0 15 -4 20 1 189 6
210 11 43 32 24 33 -29z m-989 -1011 c0 -14 2 -25 4 -25 16 0 36 14 36 25 0
23 31 27 37 5 7 -26 29 -26 43 0 11 21 40 17 40 -6 0 -8 9 -14 20 -14 12 0 20
7 20 16 0 18 24 14 26 -4 1 -7 3 -14 4 -17 5 -10 8 -26 9 -56 1 -35 21 -30 21
6 0 21 3 23 22 16 13 -5 27 -21 32 -40 9 -31 26 -43 26 -17 0 7 7 20 16 27 15
12 16 10 10 -19 -5 -21 -4 -32 3 -32 6 0 11 -14 11 -31 0 -18 4 -28 10 -24 7
4 9 -2 4 -19 -5 -22 -3 -26 15 -26 12 0 21 6 20 13 -1 6 0 26 2 42 1 17 5 -8
8 -55 8 -117 2 -320 -10 -320 -5 0 -9 9 -9 20 0 56 -55 -19 -59 -80 -1 -24
-41 -28 -41 -5 0 8 -4 15 -10 15 -5 0 -10 -4 -10 -9 0 -5 -3 -16 -6 -24 -4
-12 0 -14 16 -10 21 6 20 4 -4 -20 -14 -14 -26 -31 -26 -37 0 -5 -5 -10 -11
-10 -6 0 -8 9 -4 22 6 17 4 20 -10 15 -9 -4 -21 -7 -26 -7 -5 0 -9 -5 -9 -11
0 -16 -27 -39 -46 -39 -13 0 -14 3 -4 15 6 8 10 20 7 27 -3 8 -9 2 -16 -15 -6
-15 -17 -27 -26 -27 -8 0 -15 -3 -15 -8 0 -4 -21 -6 -47 -4 -27 1 -56 3 -67 3
-18 0 -18 0 0 15 11 9 14 13 8 10 -23 -11 -75 -16 -70 -7 4 6 -11 9 -36 8 -35
-2 -42 1 -40 15 3 18 -14 33 -39 33 -21 0 -52 32 -39 40 16 10 12 22 -10 28
-11 3 -20 0 -21 -6 0 -8 -2 -8 -6 1 -2 6 -11 12 -18 12 -16 0 -29 35 -20 51 4
6 -2 13 -13 16 -14 3 -22 17 -27 46 -12 76 -11 161 2 182 7 11 13 27 13 37 0
10 7 18 15 18 9 0 12 6 8 16 -5 13 -7 13 -14 2 -7 -10 -9 -9 -9 5 0 38 66 111
89 98 2 -1 11 12 19 29 8 17 28 38 43 45 15 8 35 25 43 37 14 19 19 21 36 10
26 -16 40 -15 40 2 0 13 13 23 33 25 4 1 7 -10 7 -24z m-940 -2 c2 -57 9 -181
15 -262 6 -69 5 -92 -4 -87 -7 5 -11 -8 -12 -41 -1 -52 -16 -123 -18 -87 0 11
-5 24 -10 30 -6 5 -12 40 -15 77 -6 100 -11 97 -32 -23 -1 -8 -5 -34 -7 -58
-5 -52 -17 -68 -17 -24 0 18 -5 32 -11 32 -8 0 -10 12 -6 35 3 19 1 37 -5 41
-5 4 -7 21 -3 40 3 19 2 34 -3 34 -11 0 -19 -35 -28 -125 -8 -79 -24 -86 -24
-11 0 37 -4 56 -14 59 -15 6 -11 47 6 58 6 3 3 9 -6 12 -16 6 -19 0 -30 -73
-15 -93 -19 -109 -27 -104 -5 3 -9 16 -9 30 0 13 -6 24 -12 24 -9 0 -8 3 2 10
12 7 12 12 0 35 -12 22 -12 30 -1 48 13 20 12 23 -15 30 -4 1 -9 -20 -12 -48
-2 -27 -8 -55 -13 -61 -4 -6 -9 -25 -11 -42 -4 -54 -18 -36 -18 23 0 30 -4 55
-10 55 -5 0 -10 15 -9 33 0 27 2 29 9 12 8 -19 9 -19 9 3 1 12 -3 22 -9 22 -5
0 -10 8 -10 17 0 9 -2 14 -5 11 -4 -3 -10 -47 -15 -98 -13 -122 -26 -145 -36
-62 -3 34 -11 62 -15 62 -12 0 -11 48 1 52 6 2 6 9 0 18 -14 23 -21 7 -27 -71
-4 -41 -8 -68 -10 -61 -3 6 -11 12 -18 12 -9 0 -16 21 -20 65 -8 75 -17 78
-21 6 -1 -27 -7 -59 -14 -70 -14 -27 -40 -27 -40 -1 0 11 5 20 10 20 12 0 9
22 -5 32 -5 4 -10 19 -11 35 -2 42 -3 47 -11 40 -6 -7 -14 -48 -14 -77 -1 -47
-11 -68 -30 -63 -13 4 -19 14 -20 37 0 17 -1 64 -2 103 -2 86 -16 98 -18 16
-2 -73 -5 -99 -14 -142 l-8 -34 -18 24 c-13 18 -15 27 -6 37 8 10 7 16 -2 21
-7 5 -15 30 -17 56 -5 62 -14 72 -14 14 1 -64 -13 -113 -33 -117 -15 -3 -17 1
-11 22 4 17 2 26 -6 26 -8 0 -11 12 -8 35 2 19 1 35 -3 35 -7 0 -19 -50 -19
-84 0 -11 -7 -30 -16 -41 -13 -17 -16 -18 -24 -5 -6 8 -8 26 -5 38 6 23 -9 52
-26 52 -5 0 -9 -18 -9 -40 0 -29 -4 -40 -15 -40 -8 0 -15 -7 -15 -17 0 -9 -2
-14 -5 -11 -5 5 -9 29 -14 96 -2 27 -21 10 -21 -20 0 -18 -9 -44 -20 -58 -17
-22 -19 -23 -26 -7 -3 9 -4 26 -1 37 3 11 2 22 -3 25 -4 3 -7 47 -5 99 2 68 7
100 20 120 22 33 35 25 35 -22 0 -20 5 -44 10 -52 7 -11 10 -5 10 23 0 24 5
40 15 43 8 4 15 10 15 15 0 4 -6 6 -13 3 -10 -4 -12 3 -9 25 2 17 8 28 13 25
5 -3 9 2 9 11 0 9 5 15 12 13 6 -2 12 -29 13 -64 1 -33 7 -69 12 -79 10 -17
12 -13 18 26 4 25 6 52 5 60 -4 29 0 50 9 44 6 -3 14 3 20 12 8 14 10 3 11
-47 0 -80 10 -141 21 -135 9 6 25 157 20 199 -2 18 4 35 18 47 17 16 21 17 21
4 0 -8 0 -18 0 -22 0 -5 -4 -8 -9 -8 -18 0 -21 -12 -7 -24 11 -9 13 -19 5 -37
-6 -16 -5 -32 1 -44 5 -10 10 -30 10 -44 0 -29 9 -56 20 -56 4 0 5 11 2 25 -2
14 0 31 5 38 5 6 10 45 11 86 1 41 4 76 7 79 2 2 12 1 22 -2 15 -6 15 -9 3
-17 -11 -8 -12 -12 -2 -16 6 -2 12 -9 12 -14 0 -6 -5 -7 -11 -3 -8 4 -8 0 0
-15 7 -12 11 -31 10 -44 -1 -12 -1 -35 -1 -52 2 -28 3 -28 19 -12 13 13 18 37
19 98 2 56 6 84 15 90 16 10 37 -20 22 -30 -11 -7 -10 -80 2 -180 6 -53 9 -61
18 -45 15 26 18 44 24 157 4 74 8 97 19 97 11 0 14 -22 14 -107 0 -60 5 -115
10 -123 7 -11 10 -8 10 16 0 17 7 37 15 44 10 9 12 16 6 20 -7 4 -8 17 -1 41
8 25 7 40 -2 58 -10 19 -10 25 0 28 6 3 12 11 12 20 0 8 5 13 12 11 8 -3 13
-35 14 -95 2 -103 11 -156 25 -147 5 3 9 21 9 40 0 19 5 34 10 34 6 0 10 5 10
11 0 5 -4 7 -10 4 -12 -8 -13 35 -1 54 6 9 5 24 0 39 -6 17 -6 29 2 39 23 27
31 6 33 -97 4 -138 4 -140 19 -135 11 5 14 33 20 190 2 36 16 65 31 65 3 0 6
-49 6 -109 0 -60 3 -116 6 -125 10 -26 25 -18 18 9 -3 14 -1 31 5 39 7 8 9 25
6 39 -4 14 -2 34 4 45 6 11 6 23 1 28 -15 16 1 64 21 64 17 0 19 -9 19 -100 0
-55 3 -100 6 -100 21 0 33 42 34 108 0 52 4 78 15 88 17 18 17 17 15 -67 -1
-31 2 -73 5 -92 6 -33 8 -34 23 -18 20 19 28 121 11 132 -8 4 -7 15 4 35 17
33 25 36 37 14 11 -20 1 -72 -13 -63 -6 4 -7 1 -2 -6 4 -7 9 -25 11 -39 7 -52
22 -117 23 -102 1 8 8 27 15 43 8 15 11 27 5 27 -5 0 -9 9 -9 21 0 11 4 17 11
14 6 -5 10 10 10 42 -1 66 1 83 11 83 4 0 8 -8 8 -17z m160 -101 c0 -101 1
-105 18 -89 13 13 17 36 18 91 1 61 5 78 23 97 l21 23 0 -113 0 -114 20 26
c22 27 26 47 10 47 -5 0 -10 7 -10 15 0 8 5 15 11 15 5 0 9 12 8 28 -5 59 0
78 21 78 24 0 25 -5 3 -35 -10 -16 -12 -21 -3 -16 10 6 12 4 7 -8 -3 -9 -7
-74 -8 -146 -2 -136 -6 -155 -28 -142 -9 6 -10 11 -2 15 20 12 13 35 -9 29
-15 -4 -20 -14 -20 -39 0 -19 -4 -34 -8 -34 -5 0 -9 -8 -9 -17 1 -79 -5 -133
-13 -133 -6 0 -10 31 -10 73 0 58 -4 76 -18 88 -17 15 -19 12 -31 -50 -18 -97
-31 -99 -32 -5 -2 107 -3 111 -11 120 -5 4 -8 -10 -8 -32 0 -25 -3 -34 -9 -26
-5 9 -10 -11 -13 -53 -3 -36 -9 -69 -12 -72 -20 -20 -29 52 -28 207 1 52 2
122 2 154 0 59 17 126 32 126 9 0 10 -13 8 -90 -1 -63 16 -123 29 -101 5 8 9
45 10 83 0 39 4 75 8 81 4 7 8 15 9 20 1 4 2 10 3 13 0 3 6 2 11 -1 6 -3 10
-52 10 -113z"/>
<path d="M7069 1389 c-8 -5 -10 -9 -6 -9 4 0 3 -10 -4 -22 -10 -19 -12 -19
-21 -5 -5 10 -6 22 -3 27 4 6 -7 10 -24 10 -18 0 -30 -5 -28 -11 1 -6 -4 -14
-10 -16 -7 -3 -13 2 -13 11 0 10 -9 16 -25 16 -16 0 -25 -6 -25 -15 0 -8 -6
-15 -14 -15 -20 0 -29 17 -14 23 7 3 1 6 -13 6 -17 1 -30 -6 -37 -21 l-11 -23
-7 24 c-7 23 -8 24 -15 5 -7 -16 -8 -17 -8 -1 -1 26 -39 22 -44 -5 l-4 -23 -2
23 c-1 16 -7 22 -26 22 -14 0 -25 -6 -25 -13 0 -7 -9 -13 -19 -14 -14 -1 -18
3 -14 13 4 10 -2 14 -21 14 -14 0 -26 -6 -26 -13 0 -7 -10 -18 -21 -26 -20
-12 -21 -11 -17 13 4 22 2 26 -18 26 -13 0 -23 -3 -23 -7 3 -21 -3 -30 -21
-28 -25 2 -39 15 -17 15 10 0 17 5 17 10 0 6 -12 10 -27 10 -14 0 -24 -3 -20
-6 3 -4 0 -13 -8 -21 -13 -13 -17 -13 -30 1 -13 13 -13 15 3 19 9 3 3 5 -15 6
-24 1 -31 -3 -27 -13 3 -7 -2 -16 -10 -19 -17 -7 -30 8 -21 23 4 6 -5 10 -19
10 -19 0 -26 -5 -26 -20 0 -14 -7 -20 -21 -20 -16 0 -20 5 -16 20 4 16 0 20
-20 20 -13 0 -22 -4 -19 -9 11 -18 -5 -39 -25 -34 -12 4 -18 11 -15 20 3 7 -1
16 -10 20 -19 7 -32 -6 -15 -16 9 -6 7 -10 -9 -14 -16 -4 -24 -1 -27 14 -7 24
-63 28 -63 4 0 -8 -5 -15 -11 -15 -6 0 -9 7 -5 15 4 11 -1 15 -19 15 -14 0
-25 -5 -25 -11 0 -6 7 -9 15 -5 9 3 15 0 15 -10 0 -10 -6 -14 -15 -10 -8 3
-18 -1 -22 -9 -5 -8 -19 -18 -31 -22 -23 -9 -24 -11 -24 -153 1 -100 -3 -147
-11 -152 -9 -6 -9 -8 1 -8 7 0 12 -14 12 -35 0 -19 -4 -35 -10 -35 -5 0 -10
-5 -10 -11 0 -5 5 -7 10 -4 6 4 10 -8 10 -29 0 -20 -4 -36 -8 -36 -4 0 -9 -12
-10 -26 -1 -15 -7 -33 -12 -39 -6 -7 -9 -18 -8 -25 2 -7 -7 -16 -19 -21 -18
-6 -23 -5 -23 7 0 8 4 13 9 10 5 -3 11 1 15 9 11 31 -21 14 -36 -19 -14 -29
-21 -33 -51 -32 -36 2 -56 16 -76 54 -6 12 -20 22 -30 22 -19 0 -31 40 -31
103 0 16 -7 35 -15 43 -9 10 -13 24 -9 40 5 18 2 24 -10 24 -12 0 -15 -6 -10
-24 3 -13 1 -27 -5 -30 -7 -5 -11 5 -11 28 0 28 -4 36 -19 36 -10 0 -33 5 -50
11 -27 10 -32 16 -28 35 4 23 1 24 -44 24 -36 0 -49 -4 -49 -14 0 -18 -47 -56
-70 -56 -9 0 -17 -6 -17 -12 -1 -24 -28 -73 -40 -74 -44 -3 -43 -3 -30 -31 9
-21 9 -27 -1 -31 -10 -3 -12 -58 -12 -239 l1 -234 22 3 c15 2 21 9 19 23 -2
17 0 16 18 -6 l20 -27 1061 4 c583 2 1064 6 1069 9 6 4 10 15 10 26 0 10 3 20
8 20 4 1 16 3 27 5 93 14 110 20 123 47 8 16 25 32 38 37 13 5 24 14 24 20 0
6 5 8 10 5 6 -4 10 5 10 20 0 20 7 28 28 36 19 7 28 17 30 35 1 14 6 34 12 44
5 10 10 36 10 57 0 58 9 79 38 94 l27 13 -26 4 c-25 3 -27 7 -33 70 -3 37 -6
84 -6 105 0 39 -27 77 -55 77 -8 0 -15 8 -15 19 0 10 -9 29 -19 43 -11 13 -19
33 -18 44 1 13 -5 19 -18 20 -55 2 -84 17 -90 44 -6 26 -12 29 -78 40 -40 7
-94 15 -120 17 -53 6 -59 24 -11 34 16 4 -11 7 -64 8 -52 0 -91 -3 -88 -8 3
-5 -1 -14 -9 -21 -8 -7 -15 -9 -15 -4 0 5 -5 2 -10 -6 -8 -12 -10 -11 -10 7 0
12 6 24 13 26 6 3 0 6 -14 6 -18 1 -28 -5 -32 -17 -6 -26 -47 -36 -47 -12 0
10 5 20 12 22 8 3 7 6 -3 10 -9 3 -22 2 -30 -3z m-847 -169 c13 0 9 -35 -4
-48 -10 -10 -10 -14 0 -21 12 -7 13 -19 12 -119 0 -31 3 -43 12 -40 8 3 13 27
13 74 0 38 4 75 8 81 4 7 3 21 -2 32 -8 14 -7 28 3 51 l13 32 12 -31 c7 -16
10 -43 6 -59 -3 -17 -2 -33 4 -36 6 -4 7 -15 2 -29 -5 -14 -5 -30 1 -40 5 -10
8 -25 7 -35 -1 -9 -1 -28 0 -42 1 -23 3 -23 12 -7 6 11 9 32 5 48 -3 18 0 33
9 43 9 8 11 17 6 20 -12 8 -12 136 0 136 6 0 7 9 4 20 -3 11 -2 20 4 20 14 0
25 -39 22 -87 -1 -23 3 -44 9 -48 7 -4 7 -13 -1 -27 -8 -15 -8 -27 2 -44 9
-18 10 -27 2 -35 -8 -8 -8 -18 0 -36 8 -17 8 -29 0 -41 -6 -11 -7 -26 -1 -41
5 -16 5 -28 -2 -35 -5 -5 -10 -24 -10 -42 0 -20 -6 -34 -16 -38 -9 -4 -18 -5
-20 -4 -4 5 -7 122 -3 137 2 8 -4 17 -14 19 -16 3 -17 -1 -12 -31 4 -22 3 -37
-5 -42 -6 -4 -8 -15 -5 -26 9 -26 -3 -59 -21 -59 -16 0 -15 -3 -19 73 -2 31 1
60 6 63 12 7 1 24 -15 24 -10 0 -16 -23 -21 -74 -4 -51 -11 -76 -21 -80 -19
-7 -28 16 -20 49 8 32 -16 44 -39 21 -9 -9 -12 -16 -6 -16 18 0 13 -47 -5 -54
-9 -4 -19 -4 -22 -1 -3 2 -6 39 -8 81 -3 82 -6 93 -27 76 -17 -15 -27 -6 -27
24 0 30 17 40 25 14 11 -36 25 -21 26 28 3 143 7 224 12 229 9 8 37 -23 37
-42 0 -9 -5 -25 -10 -35 -7 -13 -7 -21 0 -25 18 -11 12 -55 -7 -56 -14 0 -15
-2 -3 -6 27 -11 39 -35 26 -55 -9 -15 -8 -21 4 -28 18 -11 33 9 20 26 -6 6 -7
13 -4 16 3 3 7 48 9 99 5 138 5 139 18 107 6 -16 14 -28 19 -28z m293 40 c3
-5 1 -10 -6 -10 -8 0 -6 -6 4 -18 20 -22 22 -59 5 -64 -9 -3 -8 -10 5 -23 19
-19 19 -52 -1 -47 -16 3 -15 -6 3 -24 11 -11 13 -26 8 -57 -6 -39 -5 -41 11
-28 9 8 14 21 12 30 -3 9 -2 46 2 82 4 37 5 78 1 92 -5 17 -2 30 7 37 19 16
36 2 28 -22 -4 -15 -3 -18 6 -13 9 6 9 3 1 -13 -6 -12 -7 -31 -2 -50 6 -20 5
-34 -2 -41 -9 -9 -9 -14 1 -20 8 -5 13 -19 12 -32 -3 -38 -1 -49 11 -49 7 0 9
12 5 34 -4 21 -2 37 4 41 7 4 9 19 5 36 -4 15 -2 36 3 45 7 12 6 26 -1 41 -8
17 -7 27 1 35 7 7 12 20 12 30 0 10 4 18 9 18 11 0 20 -69 17 -135 -1 -27 2
-58 6 -68 14 -28 31 -8 25 30 -7 43 0 63 21 56 13 -3 11 0 -4 14 -17 14 -20
26 -16 61 2 25 9 42 17 42 20 0 25 -24 25 -120 0 -62 4 -90 13 -93 9 -3 9 -9
0 -25 -10 -16 -9 -23 2 -32 17 -14 16 -20 19 80 6 184 4 171 25 158 27 -17 34
-49 13 -65 -12 -11 -14 -16 -4 -19 6 -3 12 -16 12 -29 0 -13 -6 -26 -12 -29
-10 -5 -10 -7 0 -12 8 -4 12 -38 12 -120 0 -81 -3 -113 -11 -108 -8 5 -8 1 0
-13 7 -15 6 -25 -5 -41 -10 -15 -12 -27 -4 -46 7 -21 6 -26 -5 -26 -15 0 -21
45 -17 113 3 34 -22 66 -32 41 -3 -9 -6 -31 -6 -50 0 -24 -5 -34 -15 -34 -18
0 -19 -5 -4 -32 9 -16 7 -24 -5 -36 -15 -15 -16 -10 -16 58 0 85 -9 110 -30
86 -7 -9 -10 -25 -7 -37 8 -31 -1 -48 -24 -42 -15 4 -19 14 -19 44 0 27 -4 39
-14 39 -22 0 -28 -17 -15 -41 9 -17 8 -23 -2 -30 -8 -4 -12 -22 -11 -43 2 -24
-2 -36 -10 -36 -9 0 -14 20 -15 66 -2 73 -13 94 -36 73 -11 -10 -12 -18 -3
-31 8 -14 6 -21 -9 -32 -27 -20 -38 -9 -32 31 4 25 2 36 -10 40 -8 3 -18 1
-22 -4 -3 -6 -13 -13 -21 -16 -12 -4 -11 -6 3 -6 25 -1 23 -47 -3 -54 -11 -3
-20 -2 -21 1 -1 4 -2 59 -4 122 -4 122 1 174 15 165 5 -3 12 0 16 6 4 8 3 9
-4 5 -6 -3 -16 2 -21 13 -12 21 -4 54 10 45 5 -3 9 0 9 5 0 6 -4 11 -10 11
-14 0 -13 77 1 86 6 3 16 1 22 -5 9 -9 8 -11 -5 -6 -11 4 -18 2 -18 -4 0 -6 6
-11 14 -11 19 0 22 -14 20 -98 -2 -63 0 -73 14 -70 14 3 17 17 18 73 3 124 4
135 13 135 6 0 13 -4 16 -10z m375 -10 c0 -11 5 -20 10 -20 6 0 10 -13 10 -30
0 -16 -4 -30 -10 -30 -5 0 -10 -7 -10 -15 0 -8 5 -15 10 -15 14 0 12 -34 -2
-48 -10 -10 -10 -15 1 -21 9 -6 12 -19 9 -36 -4 -17 -1 -28 9 -32 21 -8 25 1
14 30 -8 20 -7 30 4 41 13 12 13 16 0 26 -11 9 -12 17 -4 31 5 11 7 34 4 52
-5 24 -2 37 9 46 8 7 12 19 9 27 -3 8 0 14 6 14 12 0 13 -4 16 -129 2 -46 6
-108 10 -137 4 -32 2 -55 -4 -59 -7 -4 -7 -12 2 -25 9 -16 9 -24 -1 -40 -6
-11 -12 -35 -12 -54 0 -27 -4 -34 -17 -32 -22 3 -30 45 -11 58 10 7 10 11 1
15 -8 3 -13 23 -13 49 0 24 -4 44 -10 44 -11 0 -13 -10 -10 -57 1 -18 -3 -33
-7 -33 -9 0 -11 -19 -12 -107 0 -23 -5 -33 -16 -33 -16 0 -21 26 -5 32 6 2 5
13 -4 29 -8 16 -10 33 -4 48 5 15 4 29 -3 37 -6 8 -8 25 -5 39 4 14 2 35 -4
46 -8 15 -8 24 0 34 6 7 8 25 4 38 -3 14 -2 32 2 39 10 16 12 89 2 103 -8 12
13 95 24 95 4 0 8 -9 8 -20z m164 -21 c4 -24 2 -46 -4 -54 -7 -9 -7 -21 0 -40
6 -15 7 -31 4 -37 -4 -5 -1 -21 6 -34 10 -17 10 -27 2 -37 -9 -10 -8 -18 3
-33 11 -15 15 -16 16 -4 1 21 6 144 8 210 1 34 4 50 10 42 4 -8 12 -12 17 -10
5 1 10 -12 12 -29 3 -26 -1 -33 -15 -34 -17 -1 -17 -2 0 -6 23 -6 24 -63 0
-63 -13 0 -11 -5 8 -23 13 -13 28 -20 34 -15 5 4 10 41 10 81 3 121 4 134 14
117 6 -8 7 -18 5 -22 -3 -5 2 -11 10 -14 21 -8 20 -34 -1 -50 -17 -13 -17 -15
0 -25 18 -11 24 -49 7 -49 -5 0 -10 -8 -10 -17 0 -15 2 -16 10 -3 8 13 10 12
10 -2 0 -10 4 -18 9 -18 13 0 32 26 24 33 -10 11 -11 127 -1 133 5 3 6 14 3
25 -4 11 -2 19 4 19 6 0 12 -4 12 -10 1 -5 2 -14 3 -19 0 -5 4 -13 9 -17 4 -4
4 -23 1 -41 -4 -22 -1 -39 7 -50 11 -13 11 -17 2 -20 -17 -6 -17 -38 0 -51 19
-16 41 22 28 47 -7 13 -6 24 5 39 9 13 11 22 5 22 -6 0 -11 14 -11 30 0 20 5
30 15 30 8 0 15 8 16 18 1 9 5 1 9 -18 5 -19 6 -46 3 -59 -3 -14 0 -26 8 -31
10 -7 10 -11 0 -24 -14 -17 -7 -66 9 -66 12 0 12 0 15 75 2 33 -1 63 -6 66
-11 6 18 69 31 69 5 0 7 -7 4 -15 -4 -8 -2 -15 4 -15 16 0 22 -41 6 -47 -11
-4 -11 -9 -2 -26 6 -12 12 -51 13 -87 4 -87 3 -84 20 -70 12 10 13 16 4 26 -9
11 -8 21 1 43 8 21 9 35 1 49 -8 15 -8 23 0 27 6 4 9 17 6 29 -2 11 -1 32 3
46 l8 25 7 -22 c4 -13 11 -23 16 -23 5 0 9 -31 9 -70 0 -59 2 -68 16 -63 11 4
14 14 10 37 -3 18 0 38 8 48 12 16 14 16 24 -5 6 -12 12 -33 12 -47 0 -14 2
-43 4 -65 3 -22 5 -44 5 -49 1 -6 7 -1 15 9 10 14 11 26 5 43 -13 33 -12 34
19 30 22 -2 28 -9 32 -38 4 -29 9 -35 28 -33 17 2 22 -2 22 -22 0 -20 -5 -25
-26 -25 -19 0 -25 -4 -22 -17 2 -13 11 -17 27 -15 19 3 22 0 17 -13 -3 -9 -6
-20 -6 -25 0 -4 -8 -6 -19 -3 -20 5 -41 -29 -22 -35 6 -2 11 -12 11 -23 0 -14
-7 -19 -30 -19 -25 0 -30 4 -30 25 0 14 5 25 11 25 8 0 8 5 -1 15 -14 17 -20
18 -39 6 -11 -7 -12 -13 -4 -23 9 -10 7 -19 -7 -38 -17 -22 -19 -23 -25 -7 -4
9 -5 27 -1 40 4 16 -1 26 -14 35 -22 13 -25 5 -21 -49 1 -16 -4 -29 -13 -32
-12 -5 -14 -15 -9 -38 4 -24 3 -31 -7 -27 -10 3 -14 25 -14 73 -1 54 -4 70
-16 72 -21 4 -49 -17 -32 -24 11 -4 18 -53 8 -53 -2 0 -11 -3 -20 -6 -11 -4
-15 4 -18 38 -4 56 -32 61 -36 6 -3 -31 -7 -38 -24 -38 -18 0 -20 4 -15 35 3
19 2 37 -3 40 -5 3 -5 19 0 36 7 23 6 31 -6 36 -9 3 -20 1 -27 -6 -8 -8 -8
-11 1 -11 15 0 16 -46 1 -55 -5 -4 -8 -19 -5 -33 3 -15 2 -34 -4 -42 -8 -13
-11 -13 -27 3 -14 14 -15 21 -6 37 10 15 9 25 -2 46 -11 21 -11 31 -3 41 17
21 -4 34 -26 17 -11 -8 -14 -14 -8 -14 13 0 17 -52 5 -64 -4 -4 -8 -21 -8 -38
0 -18 -6 -33 -12 -35 -13 -5 -28 40 -19 55 3 5 1 23 -4 40 -5 20 -5 34 1 38 6
4 6 11 -2 20 -17 21 -29 7 -22 -28 5 -24 2 -34 -13 -45 -11 -8 -15 -17 -9 -21
16 -11 16 -38 1 -52 -10 -7 -13 -22 -10 -40 4 -15 1 -31 -5 -34 -11 -7 -11 -3
-15 156 -1 73 -7 86 -26 62 -12 -13 -11 -17 0 -24 11 -7 12 -14 2 -35 -7 -14
-12 -39 -12 -55 0 -23 -4 -30 -20 -30 -17 0 -21 7 -21 33 0 17 -1 73 -3 122
-3 104 1 125 21 125 11 0 9 5 -6 18 -20 16 -20 19 -6 46 18 33 19 39 5 31 -11
-7 -13 18 -4 64 9 44 30 39 38 -10z"/>
</g>
</svg>
